<?xml version="1.0" standalone="no"?>
<!DOCTYPE svg PUBLIC "-//W3C//DTD SVG 20010904//EN"
 "http://www.w3.org/TR/2001/REC-SVG-20010904/DTD/svg10.dtd">
<svg version="1.0" xmlns="http://www.w3.org/2000/svg"
 width="214.000000pt" height="214.000000pt" viewBox="0 0 214.000000 214.000000"
 preserveAspectRatio="xMidYMid meet">
<metadata>
Created by potrace 1.14, written by Peter Selinger 2001-2017
</metadata>
<g transform="translate(0.000000,214.000000) scale(0.100000,-0.100000)"
fill="#000000" stroke="none">
<path d="M817 1954 c-408 -74 -732 -371 -802 -735 -12 -67 -14 -245 -2 -284 4
-11 9 -35 12 -54 11 -63 65 -186 115 -263 182 -277 515 -448 871 -448 l98 0 0
217 c0 120 0 252 1 293 l0 75 434 0 c407 0 435 1 440 17 2 10 1 19 -2 21 -4 2
-202 3 -439 3 -238 -1 -433 2 -433 6 0 5 6 8 13 9 103 6 124 11 144 32 35 35
35 105 0 128 -6 4 -4 20 3 41 27 74 -11 118 -103 120 l-56 2 -3 75 c-5 131
-15 121 120 120 365 -2 402 0 402 20 0 17 -13 18 -256 19 -140 0 -257 2 -259
4 -2 1 -5 12 -7 22 -2 14 5 21 24 26 22 7 27 4 32 -16 6 -21 12 -24 51 -24 29
0 45 4 45 13 0 11 -79 237 -87 246 -1 2 -16 4 -33 4 -34 0 -31 -21 -31 205 l0
122 -107 -1 c-59 0 -142 -7 -185 -15z m309 -450 c-4 -9 -9 -15 -11 -12 -3 3
-3 13 1 22 4 9 9 15 11 12 3 -3 3 -13 -1 -22z m44 -468 c0 -15 -27 -25 -47
-19 -26 9 -13 33 17 33 19 0 30 -5 30 -14z m8 -118 c3 -15 -4 -18 -32 -18 -30
0 -36 4 -36 21 0 17 5 20 32 17 22 -2 34 -9 36 -20z"/>
<path d="M1275 1641 c-3 -2 -5 -62 -5 -133 l0 -129 43 3 42 3 5 50 5 50 38
-53 c36 -51 39 -53 79 -50 l42 3 0 123 c1 73 -3 127 -9 130 -13 8 -75 10 -76
3 -1 -3 -3 -25 -4 -49 -3 -52 -11 -63 -24 -31 -21 52 -57 84 -95 84 -20 1 -39
-1 -41 -4z"/>
<path d="M1332 1131 c-4 -4 -8 -76 -7 -161 l0 -155 128 -1 128 -1 -3 46 -3 46
-64 2 c-35 1 -67 6 -70 11 -3 6 -6 53 -5 106 1 55 -3 99 -9 103 -13 8 -85 11
-95 4z"/>
<path d="M1685 1127 c-84 -38 -117 -146 -74 -234 17 -33 35 -53 59 -65 44 -21
118 -23 168 -3 99 40 114 219 24 284 -39 27 -135 37 -177 18z m107 -94 c20
-18 24 -67 8 -107 -7 -20 -17 -26 -39 -26 -34 0 -51 18 -55 57 -8 72 41 117
86 76z"/>
<path d="M1476 644 c-41 -58 -26 -124 29 -124 45 0 62 81 25 115 -11 10 -17
22 -14 26 13 22 -23 6 -40 -17z m45 -34 c1 -5 2 -16 3 -22 4 -22 -14 -47 -28
-42 -20 8 -25 25 -15 52 8 22 38 31 40 12z"/>
<path d="M1153 634 c-19 -38 -36 -104 -29 -111 4 -4 16 3 26 16 l18 24 13 -21
c8 -12 19 -22 26 -22 8 0 5 18 -9 58 -24 68 -33 80 -45 56z"/>
<path d="M1267 632 c-21 -23 -22 -85 -3 -102 20 -15 56 -9 70 12 15 24 0 34
-23 14 -16 -14 -20 -15 -30 -2 -15 18 -4 66 15 66 8 0 14 -4 14 -10 0 -5 7
-10 15 -10 19 0 19 14 -1 34 -20 21 -37 20 -57 -2z"/>
<path d="M1386 638 c-9 -27 -1 -111 12 -116 9 -3 12 13 12 57 0 55 -14 90 -24
59z"/>
<path d="M1599 648 c-1 -5 -3 -35 -3 -68 -1 -42 2 -60 10 -60 7 0 14 15 16 33
l3 32 15 -32 c25 -54 40 -42 40 32 0 37 -4 65 -10 65 -10 0 -13 -10 -13 -44 1
-16 -5 -13 -28 15 -16 18 -29 31 -30 27z"/>
</g>
</svg>
